<mxfile host="Electron" modified="2023-10-20T09:15:09.471Z" agent="Mozilla/5.0 (X11; Linux x86_64) AppleWebKit/537.36 (KHTML, like Gecko) draw.io/21.6.8 Chrome/114.0.5735.289 Electron/25.5.0 Safari/537.36" etag="5zD4g0gjXPjNPAXEExEO" version="21.6.8" type="device">
  <diagram name="Page-1" id="e7e014a7-5840-1c2e-5031-d8a46d1fe8dd">
    <mxGraphModel dx="1360" dy="843" grid="1" gridSize="10" guides="1" tooltips="1" connect="1" arrows="1" fold="1" page="1" pageScale="1" pageWidth="1169" pageHeight="826" background="none" math="0" shadow="0">
      <root>
        <mxCell id="0" />
        <mxCell id="1" parent="0" />
        <mxCell id="y6XV8ZErIQtH6rimKtga-12" style="edgeStyle=orthogonalEdgeStyle;rounded=0;orthogonalLoop=1;jettySize=auto;html=1;entryX=0;entryY=0.5;entryDx=0;entryDy=0;" parent="1" source="S2CBocILsHxHohjBtQmM-41" target="y6XV8ZErIQtH6rimKtga-7" edge="1">
          <mxGeometry relative="1" as="geometry" />
        </mxCell>
        <mxCell id="y6XV8ZErIQtH6rimKtga-16" style="edgeStyle=orthogonalEdgeStyle;rounded=0;orthogonalLoop=1;jettySize=auto;html=1;entryX=0;entryY=0.5;entryDx=0;entryDy=0;" parent="1" source="S2CBocILsHxHohjBtQmM-41" target="y6XV8ZErIQtH6rimKtga-15" edge="1">
          <mxGeometry relative="1" as="geometry" />
        </mxCell>
        <mxCell id="y6XV8ZErIQtH6rimKtga-29" style="edgeStyle=orthogonalEdgeStyle;rounded=0;orthogonalLoop=1;jettySize=auto;html=1;" parent="1" source="S2CBocILsHxHohjBtQmM-41" target="y6XV8ZErIQtH6rimKtga-28" edge="1">
          <mxGeometry relative="1" as="geometry">
            <Array as="points">
              <mxPoint x="155" y="280" />
              <mxPoint x="50" y="280" />
              <mxPoint x="50" y="540" />
            </Array>
          </mxGeometry>
        </mxCell>
        <mxCell id="S2CBocILsHxHohjBtQmM-41" value="Utilisateur" style="shape=umlActor;verticalLabelPosition=bottom;verticalAlign=top;html=1;outlineConnect=0;" parent="1" vertex="1">
          <mxGeometry x="140" y="100" width="30" height="60" as="geometry" />
        </mxCell>
        <mxCell id="y6XV8ZErIQtH6rimKtga-13" style="edgeStyle=orthogonalEdgeStyle;rounded=0;orthogonalLoop=1;jettySize=auto;html=1;" parent="1" source="y6XV8ZErIQtH6rimKtga-1" target="y6XV8ZErIQtH6rimKtga-7" edge="1">
          <mxGeometry relative="1" as="geometry" />
        </mxCell>
        <mxCell id="y6XV8ZErIQtH6rimKtga-20" style="edgeStyle=orthogonalEdgeStyle;rounded=0;orthogonalLoop=1;jettySize=auto;html=1;" parent="1" source="y6XV8ZErIQtH6rimKtga-1" target="y6XV8ZErIQtH6rimKtga-19" edge="1">
          <mxGeometry relative="1" as="geometry">
            <Array as="points">
              <mxPoint x="390" y="130" />
              <mxPoint x="390" y="430" />
            </Array>
          </mxGeometry>
        </mxCell>
        <mxCell id="y6XV8ZErIQtH6rimKtga-1" value="Commercial" style="shape=umlActor;verticalLabelPosition=bottom;verticalAlign=top;html=1;outlineConnect=0;" parent="1" vertex="1">
          <mxGeometry x="470" y="100" width="30" height="60" as="geometry" />
        </mxCell>
        <mxCell id="y6XV8ZErIQtH6rimKtga-14" style="edgeStyle=orthogonalEdgeStyle;rounded=0;orthogonalLoop=1;jettySize=auto;html=1;entryX=1;entryY=0.5;entryDx=0;entryDy=0;" parent="1" source="y6XV8ZErIQtH6rimKtga-3" target="y6XV8ZErIQtH6rimKtga-7" edge="1">
          <mxGeometry relative="1" as="geometry">
            <Array as="points">
              <mxPoint x="670" y="120" />
              <mxPoint x="670" y="310" />
            </Array>
          </mxGeometry>
        </mxCell>
        <mxCell id="M0I04AKf5AByaCULPEFC-3" style="edgeStyle=orthogonalEdgeStyle;rounded=0;orthogonalLoop=1;jettySize=auto;html=1;" edge="1" parent="1" source="y6XV8ZErIQtH6rimKtga-3" target="y6XV8ZErIQtH6rimKtga-26">
          <mxGeometry relative="1" as="geometry" />
        </mxCell>
        <mxCell id="M0I04AKf5AByaCULPEFC-4" style="edgeStyle=orthogonalEdgeStyle;rounded=0;orthogonalLoop=1;jettySize=auto;html=1;" edge="1" parent="1" source="y6XV8ZErIQtH6rimKtga-3" target="y6XV8ZErIQtH6rimKtga-24">
          <mxGeometry relative="1" as="geometry" />
        </mxCell>
        <mxCell id="y6XV8ZErIQtH6rimKtga-3" value="Admin&lt;br&gt;" style="shape=umlActor;verticalLabelPosition=bottom;verticalAlign=top;html=1;outlineConnect=0;" parent="1" vertex="1">
          <mxGeometry x="870" y="90" width="30" height="60" as="geometry" />
        </mxCell>
        <mxCell id="y6XV8ZErIQtH6rimKtga-7" value="Se connecte" style="ellipse;whiteSpace=wrap;html=1;" parent="1" vertex="1">
          <mxGeometry x="470" y="270" width="120" height="80" as="geometry" />
        </mxCell>
        <mxCell id="y6XV8ZErIQtH6rimKtga-15" value="Consulte le catalogue" style="ellipse;whiteSpace=wrap;html=1;" parent="1" vertex="1">
          <mxGeometry x="70" y="390" width="120" height="80" as="geometry" />
        </mxCell>
        <mxCell id="y6XV8ZErIQtH6rimKtga-19" value="Gere ses clients" style="ellipse;whiteSpace=wrap;html=1;" parent="1" vertex="1">
          <mxGeometry x="250" y="390" width="120" height="80" as="geometry" />
        </mxCell>
        <mxCell id="y6XV8ZErIQtH6rimKtga-24" value="gere le catalogue" style="ellipse;whiteSpace=wrap;html=1;" parent="1" vertex="1">
          <mxGeometry x="930" y="400" width="120" height="80" as="geometry" />
        </mxCell>
        <mxCell id="y6XV8ZErIQtH6rimKtga-26" value="gere les stocks" style="ellipse;whiteSpace=wrap;html=1;" parent="1" vertex="1">
          <mxGeometry x="760" y="400" width="120" height="80" as="geometry" />
        </mxCell>
        <mxCell id="y6XV8ZErIQtH6rimKtga-33" style="edgeStyle=orthogonalEdgeStyle;rounded=0;orthogonalLoop=1;jettySize=auto;html=1;" parent="1" source="y6XV8ZErIQtH6rimKtga-28" target="y6XV8ZErIQtH6rimKtga-31" edge="1">
          <mxGeometry relative="1" as="geometry" />
        </mxCell>
        <mxCell id="y6XV8ZErIQtH6rimKtga-35" value="include" style="edgeLabel;html=1;align=center;verticalAlign=middle;resizable=0;points=[];" parent="y6XV8ZErIQtH6rimKtga-33" vertex="1" connectable="0">
          <mxGeometry x="0.0167" y="-2" relative="1" as="geometry">
            <mxPoint as="offset" />
          </mxGeometry>
        </mxCell>
        <mxCell id="y6XV8ZErIQtH6rimKtga-34" style="edgeStyle=orthogonalEdgeStyle;rounded=0;orthogonalLoop=1;jettySize=auto;html=1;" parent="1" source="y6XV8ZErIQtH6rimKtga-28" target="y6XV8ZErIQtH6rimKtga-32" edge="1">
          <mxGeometry relative="1" as="geometry" />
        </mxCell>
        <mxCell id="y6XV8ZErIQtH6rimKtga-36" value="include" style="edgeLabel;html=1;align=center;verticalAlign=middle;resizable=0;points=[];" parent="y6XV8ZErIQtH6rimKtga-34" vertex="1" connectable="0">
          <mxGeometry x="0.0556" y="-4" relative="1" as="geometry">
            <mxPoint as="offset" />
          </mxGeometry>
        </mxCell>
        <mxCell id="y6XV8ZErIQtH6rimKtga-28" value="Commande" style="ellipse;whiteSpace=wrap;html=1;" parent="1" vertex="1">
          <mxGeometry x="70" y="500" width="120" height="80" as="geometry" />
        </mxCell>
        <mxCell id="y6XV8ZErIQtH6rimKtga-31" value="edite bon livraison" style="ellipse;whiteSpace=wrap;html=1;" parent="1" vertex="1">
          <mxGeometry x="20" y="650" width="120" height="80" as="geometry" />
        </mxCell>
        <mxCell id="y6XV8ZErIQtH6rimKtga-32" value="edite de facturation" style="ellipse;whiteSpace=wrap;html=1;" parent="1" vertex="1">
          <mxGeometry x="180" y="650" width="120" height="80" as="geometry" />
        </mxCell>
      </root>
    </mxGraphModel>
  </diagram>
</mxfile>
